

Release info:

General
Format                                   : Matroska
Format version                           : Version 2
File size                                : 696 MiB
Duration                                 : 2h 23mn
Overall bit rate                         : 680 Kbps


Video
ID                                       : 1
Format                                   : MPEG-4 Visual
Format profile                           : Advanced Simple@L5
Format settings, BVOP                    : Yes
Format settings, QPel                    : No
Format settings, GMC                     : No warppoints
Format settings, Matrix                  : Default (H.263)
Codec ID                                 : V_MS/VFW/FOURCC / XVID
Codec ID/Hint                            : XviD
Duration                                 : 2h 23mn
Bit rate                                 : 538 Kbps
Width                                    : 624 pixels
Height                                   : 264 pixels
Display aspect ratio                     : 2.35:1
Frame rate mode                          : Constant
Frame rate                               : 23.976 fps
Color space                              : YUV
Chroma subsampling                       : 4:2:0
Bit depth                                : 8 bits
Scan type                                : Progressive
Compression mode                         : Lossy
Bits/(Pixel*Frame)                       : 0.136
Stream size                              : 551 MiB (79%)
Writing library                          : XviD 64
Language                                 : English
Default                                  : Yes
Forced                                   : No

Audio
ID                                       : 2
Format                                   : MPEG Audio
Format version                           : Version 1
Format profile                           : Layer 3
Mode                                     : Joint stereo
Muxing mode                              : Header stripping
Codec ID                                 : A_MPEG/L3
Codec ID/Hint                            : MP3
Duration                                 : 2h 23mn
Bit rate mode                            : Constant
Bit rate                                 : 128 Kbps
Channel(s)                               : 2 channels
Sampling rate                            : 48.0 KHz
Compression mode                         : Lossy
Stream size                              : 131 MiB (19%)
Language                                 : English
Default                                  : Yes
Forced                                   : No

Text
ID                                       : 3
Format                                   : UTF-8
Codec ID                                 : S_TEXT/UTF8
Codec ID/Info                            : UTF-8 Plain Text
Language                                 : English
Default                                  : Yes
Forced                                   : No



Source:
credit to original movie ripper SHOWTiME (Thanks)

IMDB Info:
Bond's loyalty to M is tested as her past comes back to haunt her, bringing MI6 under attack.

Director: Sam Mendes
Writers: Neal Purvis, Robert Wade, 
Stars: Daniel Craig, Javier Bardem and Naomie Harris 

Genres: Action | Adventure | Crime | Thriller
 
http://www.imdb.com/title/tt1074638/

Screen Shot:
 
http://www.shotpix.com/images/88687496013534576019.png 
http://www.shotpix.com/images/10417009515926894614.png 
http://www.shotpix.com/images/27680785440749077761.png 
http://www.shotpix.com/images/33074400535352725500.png 
http://www.shotpix.com/images/03616865583920759014.png 
http://www.shotpix.com/images/25672109291339799387.png